<?xml version="1.0" encoding="UTF-8"?>
<svg width="24px" height="49px" viewBox="0 0 24 49" version="1.1" xmlns="http://www.w3.org/2000/svg" xmlns:xlink="http://www.w3.org/1999/xlink">
    <!-- Generator: Sketch 58 (84663) - https://sketch.com -->
    <title>直线 2</title>
    <desc>Created with Sketch.</desc>
    <g id="页面-1" stroke="none" stroke-width="1" fill="none" fill-rule="evenodd" fill-opacity="0.29258632">
        <g id="sendSucsess" transform="translate(-132.000000, -832.000000)" fill="#FFFFFF" fill-rule="nonzero">
            <g id="编组" transform="translate(103.000000, 832.000000)">
                <path id="直线-2" d="M50.097394,42.8153987 L52.6659121,48.2378257 L51.7621743,48.6659121 L49.1936562,43.2434851 L50.097394,42.8153987 Z M45.8165306,33.7780203 L48.3850486,39.2004474 L47.4813108,39.6285337 L44.9127927,34.2061067 L45.8165306,33.7780203 Z M41.5356671,24.7406419 L44.1041852,30.163069 L43.2004474,30.5911553 L40.6319293,25.1687283 L41.5356671,24.7406419 Z M37.2548037,15.7032635 L39.8233217,21.1256906 L38.9195839,21.5537769 L36.3510658,16.1313499 L37.2548037,15.7032635 Z M29.2859568,0.0481310806 L37.2055542,6.25538308 L33.59,7.967 L35.5424583,12.0883122 L34.6387205,12.5163985 L32.686,8.396 L29.0719137,10.1081602 L29.2859568,0.0481310806 Z"></path>
            </g>
        </g>
    </g>
</svg>